<svg width="56" height="60" viewBox="0 0 56 60" fill="none" xmlns="http://www.w3.org/2000/svg">
<path d="M30.3966 59.918C37.0493 59.1797 42.9122 56.1094 47.607 50.9062C49.7163 48.5508 51.2632 46.1953 52.5721 43.3008C54.1622 39.7969 54.5084 38.168 53.9351 36.9492C53.5997 36.2109 53.0048 35.6719 52.3125 35.4492C51.631 35.2266 51.3389 35.2266 50.6358 35.4609C49.7163 35.7539 49.1322 36.4687 48.6887 37.8516C46.8281 43.7109 42.8798 48.6094 37.7524 51.4336C34.5288 53.2148 31.3594 54.0351 27.6923 54.0351C24.1226 54.0351 21.2235 53.3086 18.0108 51.6211C13.5 49.2539 9.93027 45.3867 7.73436 40.4883C6.17667 37.0195 5.51681 33.8906 5.51681 30C5.51681 26.1094 6.17667 22.9805 7.73436 19.5117C10.6118 13.0781 16.0096 8.34374 22.3918 6.6328C24.9663 5.95311 28.1466 5.76561 30.7103 6.15233C36.9844 7.10155 42.5877 10.9101 46.1034 16.582C46.9038 17.8594 47.9207 19.9336 48.3858 21.1758C49.2404 23.4961 52.3449 23.6601 53.3726 21.4219C53.9459 20.1797 53.7079 18.9961 52.28 16.0547C51.6094 14.6601 50.1815 12.3047 49.2728 11.0742C48.3858 9.86718 46.3954 7.73436 45.1622 6.64452C41.03 3.02343 36 0.761707 30.6671 0.117176C29.1959 -0.0586051 25.875 -0.0234488 24.3389 0.17577C19.417 0.83202 14.917 2.81249 10.8497 6.10546C9.48676 7.20702 6.65263 10.2773 5.6358 11.7539C2.48796 16.3125 0.605751 21.5039 0.0973358 27C-0.0865555 29.0391 0.0216179 33.0703 0.313683 34.8633C1.2007 40.2773 3.09373 44.8359 6.15503 48.9492C7.18267 50.332 9.34614 52.6406 10.6009 53.6953C14.7007 57.1289 19.5577 59.2617 24.7175 59.8828C25.6154 59.9883 29.5312 60.0117 30.3966 59.918Z" fill="white"/>
<path d="M23.4843 41.2149C24.4038 40.9337 25.0961 40.2071 25.3666 39.2345C25.5721 38.4728 25.5721 38.1681 25.3557 37.3712C25.1935 36.7853 25.0096 36.5509 23.0625 34.4298L20.9423 32.1095L32.625 32.086L44.3185 32.0509L44.8485 31.6993C45.1731 31.4767 45.4976 31.1251 45.7031 30.7735C45.9952 30.2462 46.0276 30.1056 46.0276 29.1798C46.0276 28.254 45.9952 28.1134 45.7031 27.586C45.4976 27.2345 45.1731 26.8829 44.8485 26.6603L44.3185 26.3087L32.6791 26.2735L21.0505 26.2501L23.1706 23.9298C25.518 21.3634 25.6045 21.211 25.5072 19.8165C25.3882 17.9767 23.6899 16.7579 21.9916 17.2853C21.375 17.4728 21.2776 17.5665 17.0697 22.1134C12.0613 27.5274 12.1694 27.3751 12.1694 29.2384C12.1694 31.1837 12.0829 31.0548 16.8425 36.2228C19.5036 39.129 21.0721 40.7462 21.4074 40.9337C22.024 41.297 22.8353 41.4024 23.4843 41.2149Z" fill="white"/>
</svg>
