<svg width="56" height="60" viewBox="0 0 56 60" fill="none" xmlns="http://www.w3.org/2000/svg">
<g clip-path="url(#clip0_1_50)">
<path d="M24.988 0.0820274C18.3353 0.820309 12.4723 3.89062 7.77763 9.09375C5.66825 11.4492 4.12137 13.8047 2.81248 16.6992C1.22234 20.2031 0.876182 21.832 1.4495 23.0508C1.78484 23.7891 2.37979 24.3281 3.0721 24.5508C3.75359 24.7734 4.04565 24.7734 4.74878 24.5391C5.66825 24.2461 6.25238 23.5312 6.69589 22.1484C8.55647 16.2891 12.5048 11.3906 17.6322 8.5664C20.8558 6.78515 24.0252 5.96484 27.6923 5.96484C31.262 5.96484 34.161 6.6914 37.3738 8.3789C41.8846 10.7461 45.4543 14.6133 47.6502 19.5117C49.2079 22.9805 49.8678 26.1094 49.8678 30C49.8678 33.8906 49.2079 37.0195 47.6502 40.4883C44.7728 46.9219 39.375 51.6562 32.9928 53.3672C30.4183 54.0469 27.238 54.2344 24.6743 53.8477C18.4002 52.8984 12.7969 49.0898 9.28123 43.418C8.48075 42.1406 7.46392 40.0664 6.99878 38.8242C6.14421 36.5039 3.03964 36.3398 2.012 38.5781C1.43868 39.8203 1.67666 41.0039 3.10455 43.9453C3.77522 45.3398 5.20311 47.6953 6.11176 48.9258C6.99878 50.1328 8.98916 52.2656 10.2223 53.3555C14.3545 56.9766 19.3846 59.2383 24.7175 59.8828C26.1887 60.0586 29.5096 60.0234 31.0457 59.8242C35.9675 59.168 40.4675 57.1875 44.5348 53.8945C45.8978 52.793 48.732 49.7227 49.7488 48.2461C52.8966 43.6875 54.7788 38.4961 55.2872 33C55.4711 30.9609 55.363 26.9297 55.0709 25.1367C54.1839 19.7227 52.2909 15.1641 49.2296 11.0508C48.2019 9.66796 46.0384 7.35937 44.7836 6.30468C40.6839 2.87109 35.8269 0.738277 30.667 0.117184C29.7692 0.0117149 25.8533 -0.0117226 24.988 0.0820274Z" fill="white"/>
<path d="M31.9002 18.7851C30.9807 19.0664 30.2884 19.793 30.018 20.7656C29.8125 21.5273 29.8125 21.832 30.0288 22.6289C30.1911 23.2148 30.375 23.4492 32.3221 25.5703L34.4423 27.8906L22.7596 27.9141L11.0661 27.9492L10.536 28.3008C10.2115 28.5234 9.88698 28.875 9.68145 29.2266C9.38939 29.7539 9.35693 29.8945 9.35693 30.8203C9.35693 31.7461 9.38939 31.8867 9.68145 32.4141C9.88698 32.7656 10.2115 33.1172 10.536 33.3398L11.0661 33.6914L22.7055 33.7266L34.3341 33.75L32.2139 36.0703C29.8666 38.6367 29.78 38.7891 29.8774 40.1836C29.9964 42.0234 31.6947 43.2422 33.393 42.7148C34.0096 42.5273 34.1069 42.4336 38.3149 37.8867C43.3233 32.4726 43.2151 32.625 43.2151 30.7617C43.2151 28.8164 43.3016 28.9453 38.542 23.7773C35.881 20.8711 34.3125 19.2539 33.9771 19.0664C33.3605 18.7031 32.5492 18.5976 31.9002 18.7851Z" fill="white"/>
</g>
<defs>
<clipPath id="clip0_1_50">
<rect width="55.3846" height="60" fill="white"/>
</clipPath>
</defs>
</svg>
