<svg width="51" height="50" viewBox="0 0 51 50" fill="none" xmlns="http://www.w3.org/2000/svg">
<g clip-path="url(#clip0_3_117)">
<path d="M37.4033 0.576138C36.8754 0.810513 36.5766 1.11325 36.3475 1.60153C36.1781 1.97262 36.1582 2.31442 36.1582 6.13278C36.1582 10.6347 36.1582 10.6738 36.7359 11.2597C37.1443 11.6797 37.5029 11.8261 38.2898 11.8847C39.4852 11.9726 40.282 11.6308 40.7402 10.8398L40.9893 10.4004L41.0191 6.46481C41.0391 3.89645 41.0092 2.34372 40.9395 2.01168C40.81 1.38668 40.3617 0.820278 39.8039 0.576138C39.2361 0.322231 37.9512 0.322231 37.4033 0.576138Z" fill="white"/>
<path d="M11.6045 0.625C11.1861 0.800781 10.6881 1.32812 10.5387 1.74805C10.3893 2.14844 10.3494 9.83398 10.4889 10.4785C10.5287 10.6738 10.708 11.0059 10.8873 11.2012C11.3654 11.7285 11.8535 11.9141 12.8496 11.9141C13.9055 11.9141 14.4434 11.6895 14.8916 11.0547L15.1904 10.625L15.2203 6.41602C15.2402 3.58398 15.2203 2.08008 15.1406 1.83594C15.0012 1.36719 14.6127 0.917969 14.1346 0.683594C13.6764 0.449219 12.0926 0.410156 11.6045 0.625Z" fill="white"/>
<path d="M2.18145 4.62891C1.25508 4.95117 0.537897 5.64453 0.199225 6.51367C5.91855e-06 7.04102 5.9139e-06 7.19727 0.0199278 27.1777L0.0498106 47.3145L0.298834 47.793C0.627545 48.4277 1.23516 49.0039 1.89258 49.3066L2.44044 49.5605H25.5H48.5596L49.1074 49.3066C49.7649 49.0039 50.3725 48.4277 50.7012 47.793L50.9502 47.3145V27.002V6.68945L50.6613 6.17188C50.3227 5.58594 49.8147 5.08789 49.1871 4.76562C48.7688 4.55078 48.6691 4.54102 45.651 4.51172L42.5432 4.48242L42.5133 7.7832C42.4834 11.0254 42.4834 11.0938 42.2443 11.6016C41.9555 12.2363 41.308 12.8125 40.551 13.0957C39.8039 13.3887 38.0309 13.4668 37.2838 13.252C36.2877 12.959 35.4111 12.2363 34.9729 11.3281L34.7139 10.791L34.684 7.63672L34.6541 4.49219H25.6992H16.7443L16.7145 7.68555L16.6846 10.8887L16.4057 11.4258C15.6088 12.9297 14.0051 13.6719 12.1523 13.3984C10.7678 13.1934 9.80157 12.5098 9.22383 11.3281L8.91504 10.6934L8.88516 7.58789L8.85528 4.49219H5.69766C3.37676 4.50195 2.44044 4.53125 2.18145 4.62891ZM47.7129 31.7383V46.2891H25.5H3.28712V31.7383V17.1875H25.5H47.7129V31.7383Z" fill="white"/>
<path d="M26.8547 21.25C26.7152 21.377 26.6953 21.7773 26.6953 24.0625C26.6953 26.2012 26.7252 26.7578 26.8348 26.8457C26.9244 26.9238 27.9006 26.9531 30.1916 26.9336L33.4189 26.9043L33.4488 24.1309C33.4688 22.168 33.4389 21.3184 33.3592 21.2305C33.2695 21.123 32.652 21.0938 30.1219 21.0938C27.4225 21.0938 26.9842 21.1133 26.8547 21.25Z" fill="white"/>
<path d="M36.4172 21.25C36.2777 21.377 36.2578 21.7773 36.2578 24.0625C36.2578 26.2012 36.2877 26.7578 36.3973 26.8457C36.4869 26.9238 37.4631 26.9531 39.7541 26.9336L42.9814 26.9043L43.0113 24.1309C43.0313 22.168 43.0014 21.3184 42.9217 21.2305C42.832 21.123 42.2145 21.0938 39.6844 21.0938C36.985 21.0938 36.5467 21.1133 36.4172 21.25Z" fill="white"/>
<path d="M7.68984 29.4141C7.6002 29.502 7.57031 30.2344 7.57031 32.1875C7.57031 34.4727 7.59023 34.873 7.72969 35C7.85918 35.1367 8.29746 35.1562 10.9969 35.1562C13.527 35.1562 14.1445 35.127 14.2342 35.0195C14.3139 34.9316 14.3438 34.082 14.3238 32.1191L14.2939 29.3457L11.0566 29.3164C8.61621 29.2969 7.77949 29.3262 7.68984 29.4141Z" fill="white"/>
<path d="M17.2523 29.4141C17.1627 29.502 17.1328 30.2344 17.1328 32.1875C17.1328 34.4727 17.1527 34.873 17.2922 35C17.4217 35.1367 17.86 35.1562 20.5594 35.1562C23.0895 35.1562 23.707 35.127 23.7967 35.0195C23.8764 34.9316 23.9063 34.082 23.8863 32.1191L23.8564 29.3457L20.6191 29.3164C18.1787 29.2969 17.342 29.3262 17.2523 29.4141Z" fill="white"/>
<path d="M26.8148 29.4141C26.7252 29.502 26.6953 30.2344 26.6953 32.1875C26.6953 34.4727 26.7152 34.873 26.8547 35C26.9842 35.1367 27.4225 35.1562 30.1219 35.1562C32.652 35.1562 33.2695 35.127 33.3592 35.0195C33.4389 34.9316 33.4688 34.082 33.4488 32.1191L33.4189 29.3457L30.1816 29.3164C27.7412 29.2969 26.9045 29.3262 26.8148 29.4141Z" fill="white"/>
<path d="M36.3773 29.4141C36.2877 29.502 36.2578 30.2344 36.2578 32.1875C36.2578 34.4727 36.2777 34.873 36.4172 35C36.5467 35.1367 36.985 35.1562 39.6844 35.1562C42.2145 35.1562 42.832 35.127 42.9217 35.0195C43.0014 34.9316 43.0313 34.082 43.0113 32.1191L42.9814 29.3457L39.7441 29.3164C37.3037 29.2969 36.467 29.3262 36.3773 29.4141Z" fill="white"/>
<path d="M7.66992 37.5879C7.5205 37.8711 7.53047 42.9883 7.68984 43.1445C7.77949 43.2324 8.63613 43.2617 10.9172 43.2617C12.6305 43.2617 14.0947 43.2324 14.1844 43.2031C14.3238 43.1543 14.3437 42.8125 14.3437 40.3906C14.3437 38.3789 14.3139 37.6074 14.2242 37.5195C14.1346 37.4316 13.268 37.4023 10.9371 37.4023C7.91894 37.4023 7.76953 37.4121 7.66992 37.5879Z" fill="white"/>
<path d="M17.2324 37.5879C17.083 37.8711 17.093 42.9883 17.2523 43.1445C17.342 43.2324 18.1986 43.2617 20.4797 43.2617C22.193 43.2617 23.6572 43.2324 23.7469 43.2031C23.8863 43.1543 23.9062 42.8125 23.9062 40.3906C23.9062 38.3789 23.8764 37.6074 23.7867 37.5195C23.6971 37.4316 22.8305 37.4023 20.4996 37.4023C17.4814 37.4023 17.332 37.4121 17.2324 37.5879Z" fill="white"/>
<path d="M26.8547 37.5586C26.7152 37.6855 26.6953 38.0762 26.6953 40.293C26.6953 41.8945 26.7352 42.959 26.7949 43.0762C26.8945 43.252 27.034 43.2617 30.0322 43.2617C31.7455 43.2617 33.2197 43.2324 33.3094 43.2031C33.4488 43.1543 33.4688 42.8125 33.4688 40.3906C33.4688 38.3789 33.4389 37.6074 33.3492 37.5195C33.2596 37.4316 32.4029 37.4023 30.1219 37.4023C27.4225 37.4023 26.9842 37.4219 26.8547 37.5586Z" fill="white"/>
<path d="M36.4172 37.5586C36.2777 37.6855 36.2578 38.0762 36.2578 40.293C36.2578 41.8945 36.2977 42.959 36.3574 43.0762C36.457 43.252 36.5965 43.2617 39.5947 43.2617C41.308 43.2617 42.7822 43.2324 42.8719 43.2031C43.0113 43.1543 43.0312 42.8125 43.0312 40.3906C43.0312 38.3789 43.0014 37.6074 42.9117 37.5195C42.8221 37.4316 41.9654 37.4023 39.6844 37.4023C36.985 37.4023 36.5467 37.4219 36.4172 37.5586Z" fill="white"/>
</g>
<defs>
<clipPath id="clip0_3_117">
<rect width="51" height="50" fill="white"/>
</clipPath>
</defs>
</svg>
