<svg width="56" height="60" viewBox="0 0 56 60" fill="none" xmlns="http://www.w3.org/2000/svg">
<path d="M24.0903 0.17812C17.9177 1.09057 12.4259 4.02789 8.07625 8.74012C4.99574 12.0774 2.769 15.9772 1.39604 20.4644C0.3692 23.7892 0 26.3391 0 29.9889C0 33.6262 0.3692 36.151 1.3845 39.5133C4.41886 49.5127 12.1836 57.0748 21.7597 59.3497C24.4826 59.9996 28.463 60.1871 31.232 59.7996C40.8658 58.4247 49.069 51.8251 53.0148 42.2757C54.6531 38.3009 55.38 34.5011 55.38 29.9889C55.38 26.3391 55.0108 23.8267 53.984 20.4269C52.6802 16.1272 50.3843 12.0899 47.3614 8.80262C42.9772 4.04039 37.4161 1.06557 31.232 0.17812C29.5591 -0.0593643 25.6825 -0.0593643 24.0903 0.17812ZM29.1899 4.11539C37.2892 4.74035 44.2579 9.42758 48.3883 17.0271C49.9112 19.827 50.9496 23.1018 51.3996 26.5016C51.6188 28.189 51.6188 31.7888 51.3996 33.4637C49.8766 45.113 41.6042 54.0375 30.8397 55.6874C29.2245 55.9249 26.1555 55.9249 24.5403 55.6874C15.391 54.2874 7.82243 47.4878 4.9842 38.1134C4.14196 35.3386 3.80738 33.0637 3.80738 29.9889C3.80738 27.714 3.98044 26.0016 4.38425 24.1267C6.2764 15.4397 12.1259 8.40264 19.8791 5.50281C22.002 4.71535 24.471 4.19038 26.7093 4.07789C27.0901 4.05289 27.4246 4.02789 27.4593 4.0154C27.4939 4.0029 28.2669 4.05289 29.1899 4.11539Z" fill="white"/>
<path d="M18.1716 16.5771C17.7678 16.6896 17.1678 17.2521 17.0063 17.6896C16.7986 18.227 16.7986 18.8895 17.0063 19.402C17.0986 19.627 19.2215 22.0268 21.852 24.8642L26.5363 29.9264L21.8636 34.9886C18.7023 38.4259 17.1447 40.2007 17.0178 40.5132C16.4871 41.9006 17.2947 43.3506 18.5985 43.3881C18.8869 43.3881 19.233 43.3506 19.3945 43.3006C19.7176 43.2006 30.7359 31.3513 30.9897 30.8388C31.1859 30.4388 31.1974 29.6514 31.0359 29.1514C30.8513 28.6264 20.1329 17.0146 19.5561 16.7271C19.1061 16.5021 18.6561 16.4521 18.1716 16.5771Z" fill="white"/>
<path d="M35.8009 16.7397C35.524 16.8897 35.1894 17.2147 35.0509 17.4647L34.7856 17.9271V29.9889V42.0507L35.0509 42.5132C35.6163 43.5006 36.9431 43.7506 37.8084 43.0381C38.5814 42.4007 38.5352 43.2381 38.5352 29.9514V17.9021L38.2814 17.4897C37.8891 16.8772 37.5084 16.6147 36.8623 16.5397C36.4123 16.4897 36.1816 16.5397 35.8009 16.7397Z" fill="white"/>
</svg>
