<svg width="167" height="159" viewBox="0 0 167 159" fill="none" xmlns="http://www.w3.org/2000/svg">
<g clip-path="url(#clip0_41_82)">
<path d="M73.4865 0.46579C68.4961 1.7701 65.006 4.90662 63.1468 9.7822C62.9185 10.4033 62.7554 18.5396 62.625 34.4396L62.4619 58.1965L57.2757 39.7189C53.5574 26.4586 51.8287 20.7445 51.0785 19.4402C48.306 14.3783 42.1088 11.397 36.3355 12.3287C29.0293 13.5398 23.5822 19.9992 24.2345 26.707C24.2998 27.6387 26.7461 36.8619 29.649 47.1721C32.5519 57.4822 34.8677 65.9601 34.8025 66.0223C34.7373 66.1154 32.1931 62.0783 29.1597 57.0785C25.4414 50.9297 23.1908 47.5137 22.1797 46.551C19.3093 43.8181 14.6451 42.4207 10.8615 43.1349C4.95778 44.2529 0.587078 48.7558 0.0978201 54.2525C-0.228352 58.0723 0.195672 58.9728 8.93708 73.3822C17.548 87.6053 19.081 90.3381 20.7119 94.3752C23.2234 100.71 24.365 106.611 24.789 115.058C25.1804 123.318 26.3547 128.753 27.8877 129.312C28.9966 129.715 30.334 129.498 30.9863 128.784C31.8017 128.007 31.7691 126.921 30.8558 123.132C30.5623 121.921 30.1709 118.225 30.0078 114.84C29.5838 106.176 28.5074 100.524 26.0611 93.9094C24.3324 89.2201 22.2449 85.3693 13.9601 71.7363C9.5568 64.4695 5.80583 58.0723 5.61012 57.4822C4.66423 54.9047 5.51227 51.9234 7.66501 50.0291C10.8941 47.2031 15.7541 47.2963 18.657 50.2154C19.1136 50.6812 24.2998 58.9728 30.1382 68.6308C35.9767 78.2889 41.065 86.4252 41.4564 86.7047C42.4675 87.5121 43.6091 87.3879 44.7507 86.332C45.5336 85.5867 45.6966 85.2141 45.5336 84.5308C45.4031 84.065 41.75 71.1152 37.4119 55.7431C30.5949 31.5826 29.5185 27.5144 29.5185 25.6201C29.5511 22.2972 31.1168 19.8439 34.3132 18.167C35.8136 17.3595 36.3681 17.2353 38.4882 17.2353C42.0109 17.2664 44.555 18.6017 46.4142 21.4898C46.8709 22.173 52.742 42.607 62.6576 78.0094C63.2121 80.09 65.6584 80.6801 67.1914 79.1273C67.8437 78.4441 67.8437 78.1646 67.8437 45.4951C67.8437 7.79471 67.648 10.3722 70.6162 7.57732C71.9535 6.30408 72.7363 5.83826 74.2041 5.40349C77.792 4.4408 81.6082 5.52771 84.0218 8.19841C86.2072 10.6207 86.1093 8.97478 86.1093 46.4889V80.4627L86.9248 81.208C87.8707 82.1396 89.3384 82.2328 90.317 81.4254C90.8714 81.0217 92.9589 74.407 100.167 50.4639C105.19 33.7564 109.594 19.5644 109.92 18.9433C110.703 17.5148 112.334 15.9621 113.997 15.1236C115.008 14.5957 115.889 14.4404 117.911 14.4404C120.194 14.4404 120.749 14.5646 122.249 15.341C124.141 16.3658 125.609 17.9185 126.424 19.7818C127.598 22.3904 127.501 22.7941 118.27 55.4637L109.594 86.2078V93.8162C109.594 101.114 109.626 101.456 110.377 102.946C111.714 105.679 114.193 107.108 117.552 107.139C121.01 107.139 121.369 106.828 129.947 97.2012C134.187 92.4187 138.493 87.8537 139.536 87.0773C143.32 84.2203 148.343 82.4191 153.496 82.0775C155.975 81.9223 156.367 81.9533 157.932 82.6986C159.857 83.5992 161.292 85.3383 161.651 87.2326C161.944 88.599 161.325 90.866 160.346 92.0771C159.172 93.4746 114.258 138.535 110.735 141.827C109.039 143.411 106.593 145.398 105.288 146.268C100.461 149.528 93.9701 152.137 87.9033 153.317C83.5978 154.124 66.6695 154.124 62.625 153.317C55.4492 151.857 49.2519 148.938 43.8048 144.435C41.9131 142.914 41.2607 142.541 40.3148 142.541C39.4994 142.541 39.0101 142.758 38.5209 143.348C37.314 144.777 37.6076 145.584 40.0865 147.851C45.4031 152.727 53.0029 156.391 61.4181 158.13C64.4515 158.783 65.6257 158.814 75.0195 158.845C86.6964 158.845 88.7187 158.627 95.2748 156.516C102.059 154.373 107.474 151.361 112.79 146.827C116.248 143.845 163.379 96.549 164.912 94.4994C168.957 89.158 166.706 81.2391 160.281 78.2267C156.693 76.5498 151.409 76.674 145.31 78.5994C138.427 80.7732 136.111 82.6055 126.489 93.3814C118.759 102.108 118.661 102.17 117.422 102.17C116.443 102.17 116.019 101.984 115.497 101.362C114.845 100.586 114.812 100.151 114.812 93.692V86.8599L123.489 56.0847C131.252 28.6324 132.197 25.0611 132.197 22.9494C132.197 14.0056 123.391 7.54626 114.323 9.81326C110.605 10.7138 107.147 13.2914 105.419 16.3969C104.799 17.5459 102.19 25.7133 97.982 39.6879L91.4912 61.2088L91.3281 35.9613L91.165 10.7138L90.4148 8.94373C87.6097 2.32907 80.3687 -1.27327 73.4865 0.46579Z" fill="white"/>
<path d="M100.624 102.481C92.6002 104.22 86.2072 107.605 80.2056 113.319C72.7363 120.399 68.5939 129.063 67.9742 138.846C67.7459 142.137 67.7459 142.168 68.5939 142.976C69.7029 144.032 71.1707 144.063 72.2471 143.007C72.932 142.386 73.0625 141.951 73.0625 140.46C73.0625 132.293 77.2049 123.132 83.6631 116.921C89.0775 111.704 96.025 108.195 103.07 107.108C104.799 106.828 105.712 106.518 106.234 106.021C107.245 105.058 107.213 103.599 106.169 102.636C105.223 101.704 104.277 101.673 100.624 102.481Z" fill="white"/>
<path d="M31.4755 134.622C31.0189 135.026 30.6601 135.678 30.6601 136.082C30.6601 136.889 31.7365 138.752 32.5519 139.342C33.9544 140.398 36.5312 139.125 36.5312 137.386C36.5312 136.423 35.4222 134.591 34.5742 134.156C33.5304 133.628 32.291 133.815 31.4755 134.622Z" fill="white"/>
</g>
<defs>
<clipPath id="clip0_41_82">
<rect width="167" height="159" fill="white"/>
</clipPath>
</defs>
</svg>
