<svg width="147" height="159" viewBox="0 0 147 159" fill="none" xmlns="http://www.w3.org/2000/svg">
<path d="M49.7273 0.310654C32.0414 2.73291 17.284 15.9001 11.7715 34.1603C9.50331 41.6755 9.61816 38.9737 9.61816 84.6241V125.306L10.2785 128.504C12.7477 140.647 19.1789 150.087 28.3664 155.087C34.568 158.472 41.8318 159.683 48.8086 158.565C61.183 156.547 71.0309 147.572 75.4811 134.281C77.376 128.629 77.577 126.89 77.7779 112.884L77.9789 100.151L78.8402 97.4808C79.96 94.0647 81.5965 91.4251 85.3289 86.9843C91.8176 79.2827 94.1719 75.8978 96.4113 71.1153C100.661 62.0163 101.895 49.2528 99.5695 38.3526C96.5549 24.2227 87.5684 11.8009 75.6533 5.34151C71.9496 3.32295 67.7004 1.73917 63.8244 0.931747C60.293 0.186432 53.0865 -0.124115 49.7273 0.310654ZM62.3027 10.0618C75.2227 13.0431 85.5873 22.7632 90.0088 36.0235C93.1957 45.6194 92.7363 57.886 88.8891 66.5813C87.2812 70.2147 84.9557 73.5686 80.0748 79.3448C73.4426 87.1706 71.4902 90.6487 69.8537 97.3565C69.5092 98.8161 69.3656 102.015 69.1934 112.108C69.0211 121.921 68.8488 125.492 68.533 127.014C66.0926 138.162 59.9771 145.553 50.6174 148.659C48.3492 149.404 47.6602 149.497 43.6406 149.497C39.6211 149.497 38.932 149.404 36.6064 148.628C26.3566 145.243 19.8967 136.548 18.375 124.064C18.1453 122.387 18.0879 108.847 18.174 82.6056C18.2889 39.8433 18.1453 42.9177 19.9828 36.7999C24.4043 22.2042 36.6064 11.4903 51.1055 9.50284C53.1152 9.22334 60.2068 9.59601 62.3027 10.0618Z" fill="white"/>
<path d="M50.0719 17.8875C39.3627 19.8129 30.2039 28.5082 26.9021 39.9053C25.725 43.9424 25.4953 47.11 25.6102 56.6748C25.6963 64.4695 25.7824 65.5564 26.2992 67.1092C27.1893 69.8109 28.4813 71.8916 31.8979 76.084C33.7066 78.3199 35.4006 80.7732 35.9174 81.8602C37.4391 85.152 37.3529 90.0275 35.7164 93.5367C35.3432 94.3441 33.5057 96.7664 31.6107 98.9092C26.127 105.182 25.5527 106.859 25.5527 116.145C25.5527 123.753 26.0408 126.734 28.0219 131.02C31.6969 139.032 39.3053 143.007 47.5166 141.144C55.4408 139.342 60.9533 131.641 61.6424 121.424C61.7859 119.095 61.7285 118.598 61.183 117.449C60.7811 116.579 60.2068 115.958 59.4316 115.523C56.3309 113.815 53.1152 116.145 53.1152 120.088C53.0865 125.057 50.7035 129.84 47.4018 131.486C45.4494 132.448 41.717 132.417 39.7934 131.392C37.152 129.995 35.4293 127.386 34.5967 123.536C33.9937 120.772 33.9937 111.269 34.5967 109.716C34.8551 109.095 36.1758 107.325 37.5539 105.772C38.932 104.22 40.626 102.17 41.315 101.238C45.8801 94.9963 46.9424 85.3383 43.8129 78.1025C42.7219 75.5871 41.1715 73.2891 38.042 69.5625C34.7689 65.6186 34.3096 64.6559 34.3096 61.6436C34.3383 57.4201 36.0035 53.6314 39.5062 49.8738C42.7219 46.4268 46.1385 44.5324 49.8135 44.1908C52.1391 43.9424 53.5459 43.135 54.2637 41.6133C54.9814 40.0605 54.9814 38.8184 54.2637 37.2656C53.3736 35.4023 51.8232 34.657 49.2393 34.8744C45.3633 35.185 40.9131 36.9551 37.4104 39.5326C36.5777 40.1537 35.8887 40.5574 35.8887 40.4643C35.8887 40.3711 36.2906 39.5016 36.75 38.5389C39.2766 33.4148 43.8416 29.4398 49.3828 27.6076C52.4836 26.5518 57.7664 26.5518 60.8672 27.6076C69.7102 30.5578 75.4811 38.4457 75.9979 48.29C76.3711 55.5258 75.0791 59.3766 70.3418 65.0596C67.4133 68.5998 66.8965 70.1215 68.0162 72.3574C69.1072 74.5934 71.7486 75.525 73.7871 74.376C74.8781 73.7549 78.9264 68.7861 80.6777 65.898C84.0943 60.2772 85.4725 51.8613 84.2379 44.0666C81.4529 26.6139 66.2648 14.9373 50.0719 17.8875Z" fill="white"/>
<path d="M119.868 30.6201C118.605 31.3344 109.446 41.2408 108.786 42.6072C108.499 43.2594 108.24 44.191 108.24 44.719C108.24 46.2717 109.245 48.0418 110.537 48.7561C111.944 49.5324 113.121 49.5324 114.499 48.7871C115.791 48.0418 124.95 38.1043 125.582 36.7379C127.333 32.9182 123.342 28.6637 119.868 30.6201Z" fill="white"/>
<path d="M126.041 60.184C122.653 61.6746 119.581 63.0721 119.237 63.2895C118.375 63.8174 117.428 65.8359 117.428 67.1402C117.428 69.4383 119.552 71.7053 121.648 71.7363C122.51 71.7363 132.702 67.5439 135.257 66.1154C136.521 65.4322 137.525 63.6311 137.525 62.1094C137.525 59.7182 135.372 57.4201 133.161 57.4512C132.645 57.4822 129.429 58.6934 126.041 60.184Z" fill="white"/>
<path d="M119.61 87.9779C116.767 89.748 116.767 94.1268 119.61 95.8658C121.619 97.077 132.329 101.549 133.247 101.549C135.401 101.549 137.525 99.2508 137.525 96.8906C137.525 95.6795 136.607 93.692 135.745 93.102C134.396 92.1703 122.567 87.2637 121.648 87.2637C121.16 87.2637 120.213 87.5742 119.61 87.9779Z" fill="white"/>
<path d="M110.48 110.275C108.556 111.362 107.723 114.126 108.7 116.238C109.331 117.604 118.49 127.542 119.782 128.287C120.385 128.597 121.246 128.877 121.734 128.877C123.17 128.877 124.806 127.79 125.467 126.393C126.185 124.871 126.185 123.598 125.495 122.107C124.806 120.71 115.619 110.803 114.356 110.12C113.15 109.468 111.772 109.499 110.48 110.275Z" fill="white"/>
</svg>
