<svg width="448" height="422" viewBox="0 0 448 422" fill="none" xmlns="http://www.w3.org/2000/svg">
<path d="M266.437 25.963C266 26.1279 262.587 26.8697 259 27.6115C240.187 31.5677 229.25 41.6232 229.25 54.7282C229.25 59.5911 232.487 66.6794 238 74.015L241.587 78.713L233.712 79.29C229.337 79.6197 224.087 80.279 222.075 80.7736C210.7 83.6583 203.875 91.9829 203.875 102.945C203.875 108.385 207.462 115.968 213.85 124.21L217.875 129.238L213.762 130.556C210.525 131.463 200.55 133.524 198.975 133.524C198.8 133.524 197.925 134.348 196.875 135.337C194.775 137.48 194.687 140.035 196.437 148.772C198.275 157.673 200.025 159.404 206.5 158.827C218.575 157.838 231.875 153.14 238.175 147.7C244.037 142.59 246.312 137.727 246.312 130.227C246.225 123.386 244.475 119.182 237.825 110.445L234.412 105.912L242.287 105.335C256.2 104.264 263.112 101.544 267.575 95.3622C275.012 85.1419 273.787 76.3228 262.937 61.7341L258.212 55.3052L262.325 54.0689C264.6 53.4095 268.8 52.4204 271.6 52.0083C280.962 50.4423 282.1 47.9697 279.475 35.7712C277.725 27.6939 275.887 25.5509 270.9 25.6333C268.887 25.6333 266.962 25.7982 266.437 25.963Z" fill="white"/>
<path d="M365.05 38.1613C358.487 44.343 354.375 48.8762 354.375 49.8652C354.375 52.0906 364.787 61.8164 367.062 61.8164C368.2 61.8164 373.1 57.8602 379.663 51.5961C389.025 42.777 390.425 41.1285 389.987 39.3977C389.287 36.8426 379.487 28.0234 377.387 28.0234C376.512 28.0234 371 32.5566 365.05 38.1613Z" fill="white"/>
<path d="M155.4 54.0689C154.263 55.1404 154 57.6954 154 69.2345C154 86.2958 153.65 85.7189 164.5 85.7189C175.35 85.7189 175 86.2958 175 69.2345C175 52.1732 175.35 52.7501 164.5 52.7501C158.638 52.7501 156.45 53.0798 155.4 54.0689Z" fill="white"/>
<path d="M390.25 83.3285C346.15 88.6035 296.888 117.121 265.125 155.942C259.262 163.03 258.3 165.009 259.7 166.987C260.837 168.553 272.475 175.559 274.05 175.559C274.925 175.559 277.9 172.591 281.05 168.718C301.787 143.084 336.35 118.935 366.713 108.962C375.55 105.995 388.238 103.357 397.075 102.533C400.75 102.203 403.988 101.461 404.775 100.802C405.65 99.9777 406 97.5875 406 92.3949C406 82.0098 405.125 81.5152 390.25 83.3285Z" fill="white"/>
<path d="M132.737 146.217C127.662 147.535 121.887 151.162 119.437 154.624C117.075 157.92 114.45 164.102 99.225 203.088L86.625 235.15L89.95 239.353C105.875 259.217 135.362 279.081 170.1 293.422C198.887 305.373 233.187 314.028 259.437 316.088C265.65 316.583 267.05 316.418 272.387 314.522C275.712 313.286 279.825 311.637 281.575 310.813C292.425 305.538 296.537 292.515 292.337 276.855C288.487 262.844 275.45 241.496 258.475 221.303C248.85 209.846 224.7 187.098 212.625 178.114C179.287 153.14 150.587 141.683 132.737 146.217ZM151.987 166.904C172.375 172.921 195.825 188.417 221.9 212.978C238.175 228.391 245.262 236.304 255.062 250.151C268.275 268.778 275.537 286.663 272.212 292.433C269.062 298.038 246.837 290.867 225.837 277.432C186.462 252.376 148.4 210.588 137.812 180.999C135.45 174.405 134.925 167.481 136.675 165.833C138.337 164.267 144.637 164.679 151.987 166.904Z" fill="white"/>
<path d="M395.675 159.074C394.712 159.981 393.575 162.124 393.312 163.772C392.437 168.47 390.337 176.383 389.55 177.619C389.112 178.443 387.275 177.537 382.462 174.24C372.137 167.234 369.075 166.08 360.937 166.08C355.075 166.08 353.237 166.41 349.562 168.223C341.162 172.344 337.4 179.515 336.175 193.609L335.562 201.109L331.187 198.142C323.662 193.032 315.175 189.57 310.187 189.57C299.687 189.57 290.85 195.34 285.775 205.56C282.537 211.989 280 220.479 279.387 227.484C278.775 233.501 280.525 235.067 289.975 236.881C302.925 239.353 305.55 238.282 307.212 229.463C307.65 226.825 308.7 222.869 309.4 220.726L310.712 216.852L317.625 221.303C328.212 228.309 333.2 230.204 340.2 229.792C350.875 229.298 358.837 223.446 361.812 214.05C362.6 211.659 363.387 206.302 363.737 202.098C364 197.977 364.437 194.516 364.7 194.516C364.875 194.516 366.537 195.587 368.287 196.906C370.037 198.225 374.237 200.697 377.562 202.428C383.162 205.395 384.3 205.643 390.25 205.643C395.5 205.643 397.687 205.231 401.1 203.582C409.675 199.461 415.537 190.642 419.037 176.713C422.45 162.783 421.487 160.805 409.937 158.662C400.662 157.014 397.95 157.096 395.675 159.074Z" fill="white"/>
<path d="M70.875 275.454C66.85 285.592 62.7375 296.059 61.6 298.862L59.5875 303.889L64.225 309.576C79.975 329.11 111.3 343.122 154.963 350.21L165.113 351.859L186.463 344.441C198.188 340.32 211.137 335.869 215.25 334.468C219.363 333.067 222.95 331.666 223.388 331.336C223.738 331.089 220.938 330.182 217.263 329.358C207.2 327.132 182.875 319.55 170.975 314.934C135.975 301.334 109.637 285.921 88.2875 266.387L78.05 257.156L70.875 275.454Z" fill="white"/>
<path d="M330.4 258.475C329.35 259.464 329 261.525 329 267.047C329 277.267 328.387 276.938 346.5 276.938C364.612 276.938 364 277.267 364 267.047C364 256.827 364.612 257.157 346.5 257.157C334.25 257.157 331.537 257.404 330.4 258.475Z" fill="white"/>
<path d="M50.3125 327.38C50.1375 327.957 44.975 341.062 38.85 356.392C26.775 387.136 26.6 388.042 31.325 392.493C36.225 397.109 35.875 397.191 82.95 380.707C106.575 372.382 125.65 365.376 125.3 365.047C124.95 364.799 122.15 363.893 119 363.069C96.1625 357.299 72.45 345.43 57.8375 332.49C53.2 328.369 50.575 326.638 50.3125 327.38Z" fill="white"/>
</svg>
