<svg width="55" height="60" viewBox="0 0 55 60" fill="none" xmlns="http://www.w3.org/2000/svg">
<path d="M35.2881 5.22652C34.8799 5.30855 34.1279 5.60152 33.623 5.87105C32.3984 6.53902 31.1416 7.87496 30.6045 9.10543L30.2393 9.94918H17.3701C8.27149 9.9609 4.36133 9.99605 4.02832 10.0898C3.73828 10.1718 3.35156 10.4179 3.06153 10.6875C1.8584 11.8359 2.11621 13.9101 3.55567 14.6953L4.125 15H17.1445H30.1748L30.5078 15.75C31.4531 17.8359 33.29 19.3476 35.4385 19.8164C36.3301 20.0039 37.8877 19.8867 38.7793 19.5703C40.4336 18.9726 42.0879 17.4257 42.7754 15.832L43.1299 15H47.0078H50.875L51.4443 14.6953C52.8086 13.9453 53.1094 12.1289 52.0781 10.8515C51.3906 9.99605 51.1865 9.9609 46.8467 9.9609H43.1299L42.7109 9.04683C42.0986 7.74605 40.9385 6.51558 39.7354 5.88277C38.2422 5.09761 36.8457 4.88668 35.2881 5.22652Z" fill="white"/>
<path d="M16.6719 22.793C14.8779 23.2617 13.127 24.7617 12.2676 26.5781L11.8057 27.5391H7.93848C4.69434 27.5391 4.00684 27.5625 3.67383 27.7148C1.8584 28.5469 1.8584 31.4531 3.67383 32.2852C4.00684 32.4375 4.69434 32.4609 7.93848 32.4609H11.8057L12.2676 33.4219C12.9336 34.8281 13.9756 35.9297 15.2754 36.6094C16.4678 37.2305 17.0801 37.3828 18.3906 37.3828C19.5508 37.3828 20.3994 37.1602 21.4844 36.5859C22.5801 36 23.8477 34.6289 24.417 33.3984L24.8359 32.5195L38.0273 32.4609L51.2188 32.4023L51.6914 32.0508C53.1738 30.9141 52.959 28.4648 51.3262 27.7148C50.9717 27.5625 49.4141 27.5391 37.8877 27.5391H24.8467L24.4277 26.625C23.5898 24.8203 21.8604 23.3086 20.0234 22.8047C19.2285 22.582 17.4883 22.5703 16.6719 22.793Z" fill="white"/>
<path d="M34.9443 40.3125C33.0322 40.8633 31.3779 42.3281 30.5078 44.2617L30.1748 45H17.1445H4.12499L3.55566 45.3047C2.58886 45.832 2.1162 46.9453 2.37402 48.0937C2.54589 48.8789 3.2871 49.7109 3.99609 49.8984C4.37206 50.0039 7.88476 50.0391 17.3701 50.0508H30.2392L30.6045 50.8945C31.1416 52.125 32.3984 53.4727 33.623 54.1289C35.6426 55.207 37.6299 55.207 39.7353 54.1172C40.9385 53.4961 42.0986 52.2539 42.7109 50.9531L43.1299 50.0391H46.8467C51.1865 50.0391 51.3906 50.0039 52.0781 49.1484C53.1094 47.8711 52.8086 46.0547 51.4443 45.3047L50.875 45H47.0078H43.1299L42.7646 44.1445C42.2598 42.9609 40.8848 41.4727 39.7353 40.8633C38.2637 40.0781 36.4805 39.8672 34.9443 40.3125Z" fill="white"/>
</svg>
