<svg width="176" height="159" viewBox="0 0 176 159" fill="none" xmlns="http://www.w3.org/2000/svg">
<g clip-path="url(#clip0_41_87)">
<path d="M85.4562 0.71427C83.05 1.95646 82.8438 2.67072 82.8438 10.0928C82.8438 17.4217 83.05 18.167 85.2156 19.4713C87.6562 20.9619 91.2312 20.0924 92.5375 17.7012C93.0531 16.7695 93.1562 15.6826 93.1562 10.1549C93.1562 2.70177 92.8813 1.77013 90.4062 0.621105C88.6531 -0.186316 87.1406 -0.155262 85.4562 0.71427Z" fill="white"/>
<path d="M46.2345 7.0494C43.1063 7.76366 41.7313 11.1486 43.347 14.0678C44.9626 16.9248 49.9813 24.7195 50.6688 25.4027C52.3532 27.1107 55.2751 27.5455 57.3376 26.3965C58.8501 25.558 59.9501 23.3531 59.6407 21.8004C59.4001 20.6824 52.697 9.72011 51.4251 8.41581C50.1532 7.14257 48.1938 6.61464 46.2345 7.0494Z" fill="white"/>
<path d="M126.328 7.26679C125.778 7.48417 124.988 8.0121 124.575 8.41581C123.303 9.72011 116.6 20.6824 116.359 21.8004C116.05 23.3531 117.15 25.558 118.663 26.3965C120.725 27.5455 123.647 27.1107 125.331 25.4027C126.019 24.7195 131.038 16.9248 132.653 14.0678C133.959 11.7076 133.444 9.13007 131.347 7.79472C130.041 6.95624 127.669 6.7078 126.328 7.26679Z" fill="white"/>
<path d="M79.7501 38.6942C79.2688 38.7563 77.5157 38.9737 75.7969 39.1601C51.4594 41.8308 24.8875 54.2216 6.1188 71.6743C-1.9937 79.2206 -1.9937 79.7796 6.1188 87.3259C24.2 104.126 47.5063 115.368 72.7375 119.467C77.4469 120.213 78.6157 120.306 87.4844 120.306C97.5563 120.337 99.1719 120.213 107.388 118.753C125.125 115.586 143.516 107.542 159.672 95.8659C164.209 92.5741 174.316 83.444 175.278 81.7671C176.894 78.879 176.138 77.5126 169.881 71.6743C150.288 53.4763 123.922 41.4892 97.4532 38.8185C94.6001 38.539 81.7094 38.4458 79.7501 38.6942ZM95.0469 48.4144C108.213 50.8677 118.456 59.7183 122.1 71.7675C122.753 74.0034 122.891 75.1524 122.891 79.5001C122.891 83.8477 122.753 84.9968 122.1 87.2327C118.628 98.754 109.175 107.325 96.6282 110.306C93.2938 111.083 86.3501 111.393 82.8438 110.896C65.4844 108.474 52.9375 95.3069 52.9375 79.5001C52.9375 64.0349 64.9688 51.0229 81.9844 48.197C85.0438 47.669 91.6782 47.7933 95.0469 48.4144ZM134.578 59.1903C143.103 63.4448 153.141 70.1216 160.016 76.1462L163.797 79.438L161.906 81.2081C155.375 87.3259 144.1 94.9343 134.475 99.8099C130.075 102.046 124.3 104.468 124.644 103.94C124.816 103.754 125.572 102.667 126.363 101.549C129.559 97.0149 131.897 91.5493 132.859 86.3321C133.513 82.5434 133.513 76.0841 132.825 72.5128C131.828 67.2956 129.491 61.8921 126.363 57.4513C125.572 56.3333 124.816 55.2464 124.644 55.0601C124.334 54.5632 130.144 56.9854 134.578 59.1903ZM51.2188 55.1222C51.2188 55.1843 50.5313 56.2091 49.7063 57.3581C47.5407 60.4325 46.1657 62.979 44.8594 66.5503C43.2438 70.929 42.625 74.5313 42.625 79.5001C42.625 87.6985 44.9282 94.9032 49.6376 101.549C50.4282 102.667 51.1844 103.723 51.3219 103.94C51.7001 104.468 44.9969 101.58 40.2875 99.1888C31.7282 94.81 22.4813 88.5681 15.8125 82.6987L12.2032 79.5001L15.4688 76.612C24.4063 68.7241 36.85 60.8983 47.8844 56.178C50.7032 54.9979 51.2188 54.8427 51.2188 55.1222Z" fill="white"/>
<path d="M83.6344 64.1279C75.8656 66.0223 70.4688 72.3264 70.4688 79.5C70.4688 88.1643 78.4094 95.3379 88 95.3379C99.3094 95.3379 107.834 85.4625 105.016 75.6182C102.575 67.1713 92.7781 61.923 83.6344 64.1279ZM90.6812 73.4754C93.3625 74.4691 95.2188 76.9225 95.2188 79.5C95.2188 83.0092 91.8844 86.0215 88 86.0215C82.9812 86.0215 79.4062 81.208 81.3313 77.0777C82.8438 73.7549 87.1063 72.109 90.6812 73.4754Z" fill="white"/>
<path d="M52.4219 132.293C51.2188 132.728 50.0156 134.218 47.025 138.97C42.9344 145.46 42.625 146.081 42.625 147.51C42.625 151.64 48.2281 153.69 51.2875 150.677C52.5938 149.404 59.4 138.442 59.6406 137.2C59.95 135.647 58.85 133.442 57.3375 132.604C56.1688 131.951 53.7281 131.796 52.4219 132.293Z" fill="white"/>
<path d="M118.663 132.604C117.15 133.442 116.05 135.647 116.359 137.2C116.6 138.442 123.406 149.404 124.713 150.677C126.397 152.323 129.284 152.541 131.381 151.174C133.444 149.87 133.959 147.292 132.653 144.932C131.038 142.075 126.019 134.281 125.331 133.597C123.647 131.889 120.725 131.455 118.663 132.604Z" fill="white"/>
<path d="M85.2156 139.529C83.05 140.833 82.8438 141.578 82.8438 148.907C82.8438 156.329 83.05 157.044 85.4562 158.286C87.1406 159.155 88.6531 159.186 90.4062 158.379C92.8813 157.23 93.1562 156.298 93.1562 148.845C93.1562 143.317 93.0531 142.231 92.5375 141.299C91.6781 139.746 89.9594 138.815 88 138.815C86.9 138.815 86.0063 139.032 85.2156 139.529Z" fill="white"/>
</g>
<defs>
<clipPath id="clip0_41_87">
<rect width="176" height="159" fill="white"/>
</clipPath>
</defs>
</svg>
